<mxfile host="Electron" modified="2024-02-12T12:46:08.774Z" agent="Mozilla/5.0 (Macintosh; Intel Mac OS X 10_15_7) AppleWebKit/537.36 (KHTML, like Gecko) draw.io/23.0.2 Chrome/120.0.6099.109 Electron/28.1.0 Safari/537.36" etag="9qtnZfM_mRFbsWn40K4z" version="23.0.2" type="device">
  <diagram name="Page-1" id="tbnd6GcOuTAoQqFS6ZF0">
    <mxGraphModel dx="1242" dy="878" grid="1" gridSize="10" guides="1" tooltips="1" connect="1" arrows="1" fold="1" page="1" pageScale="1" pageWidth="850" pageHeight="1100" math="0" shadow="0">
      <root>
        <mxCell id="0" />
        <mxCell id="1" parent="0" />
        <mxCell id="wv3zL8MPISwmUAxsOu1e-1" value="" style="rounded=0;whiteSpace=wrap;html=1;" parent="1" vertex="1">
          <mxGeometry x="150" y="230" width="810" height="400" as="geometry" />
        </mxCell>
        <mxCell id="CY8kjFUx2-ucLKSjw_ug-2" value="&lt;div&gt;Some protected service&lt;/div&gt;" style="rounded=1;whiteSpace=wrap;html=1;container=0;fillColor=#fff2cc;strokeColor=#d6b656;" parent="1" vertex="1">
          <mxGeometry x="785" y="330" width="120" height="60" as="geometry" />
        </mxCell>
        <mxCell id="CY8kjFUx2-ucLKSjw_ug-3" value="&lt;div&gt;Kong&lt;/div&gt;" style="rounded=1;whiteSpace=wrap;html=1;container=0;fillColor=#fff2cc;strokeColor=#d6b656;" parent="1" vertex="1">
          <mxGeometry x="490" y="330" width="120" height="60" as="geometry" />
        </mxCell>
        <mxCell id="CY8kjFUx2-ucLKSjw_ug-4" value="&lt;div&gt;Keyrock&lt;/div&gt;&lt;div&gt;(AuthorizationRegistry)&lt;br&gt;&lt;/div&gt;" style="rounded=1;whiteSpace=wrap;html=1;container=0;fillColor=#fff2cc;strokeColor=#d6b656;" parent="1" vertex="1">
          <mxGeometry x="780" y="410" width="130" height="60" as="geometry" />
        </mxCell>
        <mxCell id="CY8kjFUx2-ucLKSjw_ug-5" value="DSBA-PDP" style="rounded=1;whiteSpace=wrap;html=1;container=0;fillColor=#fff2cc;strokeColor=#d6b656;" parent="1" vertex="1">
          <mxGeometry x="625" y="410" width="120" height="60" as="geometry" />
        </mxCell>
        <mxCell id="CY8kjFUx2-ucLKSjw_ug-6" value="WaltID SSIKit" style="rounded=1;whiteSpace=wrap;html=1;container=0;fillColor=#fff2cc;strokeColor=#d6b656;" parent="1" vertex="1">
          <mxGeometry x="310" y="540" width="120" height="60" as="geometry" />
        </mxCell>
        <mxCell id="CY8kjFUx2-ucLKSjw_ug-7" value="VCVerifier" style="rounded=1;whiteSpace=wrap;html=1;container=0;fillColor=#fff2cc;strokeColor=#d6b656;" parent="1" vertex="1">
          <mxGeometry x="425" y="460" width="120" height="60" as="geometry" />
        </mxCell>
        <mxCell id="CY8kjFUx2-ucLKSjw_ug-32" value="" style="endArrow=classic;html=1;rounded=0;entryX=0.5;entryY=0;entryDx=0;entryDy=0;exitX=0.5;exitY=1;exitDx=0;exitDy=0;" parent="1" source="wv3zL8MPISwmUAxsOu1e-3" target="CY8kjFUx2-ucLKSjw_ug-3" edge="1">
          <mxGeometry width="50" height="50" relative="1" as="geometry">
            <mxPoint x="550" y="170" as="sourcePoint" />
            <mxPoint x="510" y="270" as="targetPoint" />
            <Array as="points" />
          </mxGeometry>
        </mxCell>
        <mxCell id="CY8kjFUx2-ucLKSjw_ug-33" value="" style="endArrow=classic;startArrow=classic;html=1;rounded=0;entryX=0.5;entryY=0;entryDx=0;entryDy=0;exitX=0;exitY=0.5;exitDx=0;exitDy=0;" parent="1" source="CY8kjFUx2-ucLKSjw_ug-7" target="CY8kjFUx2-ucLKSjw_ug-6" edge="1">
          <mxGeometry width="50" height="50" relative="1" as="geometry">
            <mxPoint x="670" y="670" as="sourcePoint" />
            <mxPoint x="720" y="620" as="targetPoint" />
          </mxGeometry>
        </mxCell>
        <mxCell id="CY8kjFUx2-ucLKSjw_ug-34" value="" style="endArrow=classic;startArrow=classic;html=1;rounded=0;entryX=0;entryY=0.5;entryDx=0;entryDy=0;" parent="1" source="CY8kjFUx2-ucLKSjw_ug-5" target="CY8kjFUx2-ucLKSjw_ug-4" edge="1">
          <mxGeometry width="50" height="50" relative="1" as="geometry">
            <mxPoint x="730" y="500" as="sourcePoint" />
            <mxPoint x="780" y="450" as="targetPoint" />
          </mxGeometry>
        </mxCell>
        <mxCell id="CY8kjFUx2-ucLKSjw_ug-35" value="" style="endArrow=classic;startArrow=classic;html=1;rounded=0;entryX=0.5;entryY=1;entryDx=0;entryDy=0;exitX=0;exitY=0.5;exitDx=0;exitDy=0;" parent="1" source="CY8kjFUx2-ucLKSjw_ug-5" target="CY8kjFUx2-ucLKSjw_ug-3" edge="1">
          <mxGeometry x="0.3684" y="10" width="50" height="50" relative="1" as="geometry">
            <mxPoint x="340" y="700" as="sourcePoint" />
            <mxPoint x="390" y="650" as="targetPoint" />
            <Array as="points" />
            <mxPoint as="offset" />
          </mxGeometry>
        </mxCell>
        <mxCell id="CY8kjFUx2-ucLKSjw_ug-36" value="" style="endArrow=classic;html=1;rounded=0;exitX=1;exitY=0.5;exitDx=0;exitDy=0;entryX=0;entryY=0.5;entryDx=0;entryDy=0;" parent="1" source="CY8kjFUx2-ucLKSjw_ug-3" target="CY8kjFUx2-ucLKSjw_ug-2" edge="1">
          <mxGeometry width="50" height="50" relative="1" as="geometry">
            <mxPoint x="650" y="350" as="sourcePoint" />
            <mxPoint x="700" y="300" as="targetPoint" />
          </mxGeometry>
        </mxCell>
        <mxCell id="CY8kjFUx2-ucLKSjw_ug-37" value="&lt;div&gt;TrustedIssuersList&lt;/div&gt;" style="rounded=1;whiteSpace=wrap;html=1;fillColor=#fff2cc;strokeColor=#d6b656;" parent="1" vertex="1">
          <mxGeometry x="625" y="560" width="140" height="60" as="geometry" />
        </mxCell>
        <mxCell id="CY8kjFUx2-ucLKSjw_ug-39" value="" style="endArrow=classic;startArrow=classic;html=1;rounded=0;entryX=1;entryY=0.5;entryDx=0;entryDy=0;exitX=0;exitY=0.5;exitDx=0;exitDy=0;" parent="1" source="CY8kjFUx2-ucLKSjw_ug-37" target="CY8kjFUx2-ucLKSjw_ug-7" edge="1">
          <mxGeometry width="50" height="50" relative="1" as="geometry">
            <mxPoint x="430" y="650" as="sourcePoint" />
            <mxPoint x="480" y="600" as="targetPoint" />
            <Array as="points" />
          </mxGeometry>
        </mxCell>
        <mxCell id="CY8kjFUx2-ucLKSjw_ug-13" value="Keycloak" style="rounded=1;whiteSpace=wrap;html=1;fillColor=#fff2cc;strokeColor=#d6b656;" parent="1" vertex="1">
          <mxGeometry x="190" y="460" width="120" height="60" as="geometry" />
        </mxCell>
        <mxCell id="CY8kjFUx2-ucLKSjw_ug-20" value="" style="endArrow=classic;startArrow=classic;html=1;rounded=0;exitX=0.5;exitY=0;exitDx=0;exitDy=0;entryX=1;entryY=0.5;entryDx=0;entryDy=0;" parent="1" source="CY8kjFUx2-ucLKSjw_ug-6" target="CY8kjFUx2-ucLKSjw_ug-13" edge="1">
          <mxGeometry width="50" height="50" relative="1" as="geometry">
            <mxPoint x="130" y="430" as="sourcePoint" />
            <mxPoint x="170" y="210" as="targetPoint" />
            <Array as="points" />
          </mxGeometry>
        </mxCell>
        <mxCell id="wv3zL8MPISwmUAxsOu1e-4" value="" style="endArrow=none;html=1;rounded=0;entryX=0.5;entryY=0;entryDx=0;entryDy=0;endFill=0;" parent="1" target="wv3zL8MPISwmUAxsOu1e-3" edge="1">
          <mxGeometry width="50" height="50" relative="1" as="geometry">
            <mxPoint x="550" y="240" as="sourcePoint" />
            <mxPoint x="550" y="330" as="targetPoint" />
            <Array as="points" />
          </mxGeometry>
        </mxCell>
        <mxCell id="wv3zL8MPISwmUAxsOu1e-3" value="Client requests" style="text;html=1;strokeColor=none;fillColor=none;align=center;verticalAlign=middle;whiteSpace=wrap;rounded=0;" parent="1" vertex="1">
          <mxGeometry x="520" y="260" width="60" height="30" as="geometry" />
        </mxCell>
        <mxCell id="uj8cPNcbmSvn4ADI0wo0-1" value="&lt;div&gt;CredentialsConfigService&lt;/div&gt;" style="rounded=1;whiteSpace=wrap;html=1;fillColor=#fff2cc;strokeColor=#d6b656;" vertex="1" parent="1">
          <mxGeometry x="625" y="490" width="140" height="60" as="geometry" />
        </mxCell>
        <mxCell id="uj8cPNcbmSvn4ADI0wo0-2" value="" style="endArrow=classic;startArrow=classic;html=1;rounded=0;entryX=1;entryY=0.5;entryDx=0;entryDy=0;exitX=0;exitY=0.5;exitDx=0;exitDy=0;" edge="1" parent="1" source="uj8cPNcbmSvn4ADI0wo0-1" target="CY8kjFUx2-ucLKSjw_ug-7">
          <mxGeometry width="50" height="50" relative="1" as="geometry">
            <mxPoint x="635" y="600" as="sourcePoint" />
            <mxPoint x="555" y="500" as="targetPoint" />
            <Array as="points" />
          </mxGeometry>
        </mxCell>
      </root>
    </mxGraphModel>
  </diagram>
</mxfile>
